{
    "asset" : {
        "generator" : "Khronos glTF Blender I/O v3.4.50",
        "version" : "2.0"
    },
    "extensionsUsed" : [
        "KHR_materials_specular",
        "KHR_materials_ior"
    ],
    "scene" : 0,
    "scenes" : [
        {
            "name" : "Scene",
            "nodes" : [
                0,
                1,
                2,
                3
            ]
        }
    ],
    "nodes" : [
        {
            "mesh" : 0,
            "name" : "yellow",
            "rotation" : [
                0.70710688829422,
                0,
                0,
                0.7071066498756409
            ]
        },
        {
            "mesh" : 1,
            "name" : "white",
            "rotation" : [
                0.70710688829422,
                0,
                0,
                0.7071066498756409
            ]
        },
        {
            "mesh" : 2,
            "name" : "medium_grey",
            "rotation" : [
                0.70710688829422,
                0,
                0,
                0.7071066498756409
            ]
        },
        {
            "mesh" : 3,
            "name" : "black",
            "rotation" : [
                0.70710688829422,
                0,
                0,
                0.7071066498756409
            ]
        }
    ],
    "materials" : [
        {
            "doubleSided" : true,
            "extensions" : {
                "KHR_materials_specular" : {
                    "specularColorFactor" : [
                        1,
                        1,
                        1
                    ]
                },
                "KHR_materials_ior" : {
                    "ior" : 1
                }
            },
            "name" : "jamesWebb_initialShadingGroup",
            "pbrMetallicRoughness" : {
                "baseColorFactor" : [
                    1,
                    0.7380187511444092,
                    0.11418832838535309,
                    1
                ],
                "metallicFactor" : 0
            }
        },
        {
            "doubleSided" : true,
            "extensions" : {
                "KHR_materials_specular" : {
                    "specularColorFactor" : [
                        1,
                        1,
                        1
                    ]
                },
                "KHR_materials_ior" : {
                    "ior" : 1
                }
            },
            "name" : "jamesWebb_initialShadingGroup.001",
            "pbrMetallicRoughness" : {
                "metallicFactor" : 0
            }
        },
        {
            "doubleSided" : true,
            "extensions" : {
                "KHR_materials_specular" : {
                    "specularColorFactor" : [
                        1,
                        1,
                        1
                    ]
                },
                "KHR_materials_ior" : {
                    "ior" : 1
                }
            },
            "name" : "jamesWebb_initialShadingGroup.002",
            "pbrMetallicRoughness" : {
                "baseColorFactor" : [
                    0.41549810767173767,
                    0.41549810767173767,
                    0.41549810767173767,
                    1
                ],
                "metallicFactor" : 0.41489362716674805
            }
        },
        {
            "doubleSided" : true,
            "extensions" : {
                "KHR_materials_specular" : {
                    "specularColorFactor" : [
                        1,
                        1,
                        1
                    ]
                },
                "KHR_materials_ior" : {
                    "ior" : 1
                }
            },
            "name" : "jamesWebb_initialShadingGroup.003",
            "pbrMetallicRoughness" : {
                "baseColorFactor" : [
                    0.02281096950173378,
                    0.02281096950173378,
                    0.02281096950173378,
                    1
                ],
                "metallicFactor" : 0
            }
        }
    ],
    "meshes" : [
        {
            "name" : "yellow",
            "primitives" : [
                {
                    "attributes" : {
                        "POSITION" : 0,
                        "TEXCOORD_0" : 1,
                        "NORMAL" : 2
                    },
                    "indices" : 3,
                    "material" : 0
                }
            ]
        },
        {
            "name" : "white",
            "primitives" : [
                {
                    "attributes" : {
                        "POSITION" : 4,
                        "TEXCOORD_0" : 5,
                        "NORMAL" : 6
                    },
                    "indices" : 7,
                    "material" : 1
                }
            ]
        },
        {
            "name" : "medium_grey",
            "primitives" : [
                {
                    "attributes" : {
                        "POSITION" : 8,
                        "TEXCOORD_0" : 9,
                        "NORMAL" : 10
                    },
                    "indices" : 11,
                    "material" : 2
                }
            ]
        },
        {
            "name" : "black",
            "primitives" : [
                {
                    "attributes" : {
                        "POSITION" : 12,
                        "TEXCOORD_0" : 13,
                        "NORMAL" : 14
                    },
                    "indices" : 15,
                    "material" : 3
                }
            ]
        }
    ],
    "accessors" : [
        {
            "bufferView" : 0,
            "componentType" : 5126,
            "count" : 1512,
            "max" : [
                4.6313910484313965,
                2.190095901489258,
                -6.305950164794922
            ],
            "min" : [
                -4.593647003173828,
                1.9205360412597656,
                -16.227209091186523
            ],
            "type" : "VEC3"
        },
        {
            "bufferView" : 1,
            "componentType" : 5126,
            "count" : 1512,
            "type" : "VEC2"
        },
        {
            "bufferView" : 2,
            "componentType" : 5126,
            "count" : 1512,
            "type" : "VEC3"
        },
        {
            "bufferView" : 3,
            "componentType" : 5123,
            "count" : 2376,
            "type" : "SCALAR"
        },
        {
            "bufferView" : 4,
            "componentType" : 5126,
            "count" : 420,
            "max" : [
                9.203454971313477,
                15.727046966552734,
                -3.25996994972229
            ],
            "min" : [
                -9.236471176147461,
                -16.078887939453125,
                -5.743041038513184
            ],
            "type" : "VEC3"
        },
        {
            "bufferView" : 5,
            "componentType" : 5126,
            "count" : 420,
            "type" : "VEC2"
        },
        {
            "bufferView" : 6,
            "componentType" : 5126,
            "count" : 420,
            "type" : "VEC3"
        },
        {
            "bufferView" : 7,
            "componentType" : 5123,
            "count" : 660,
            "type" : "SCALAR"
        },
        {
            "bufferView" : 8,
            "componentType" : 5126,
            "count" : 3263,
            "max" : [
                4.8766679763793945,
                15.852458953857422,
                -0.15280300378799438
            ],
            "min" : [
                -4.841983795166016,
                -16.71227264404297,
                -17.076282501220703
            ],
            "type" : "VEC3"
        },
        {
            "bufferView" : 9,
            "componentType" : 5126,
            "count" : 3263,
            "type" : "VEC2"
        },
        {
            "bufferView" : 10,
            "componentType" : 5126,
            "count" : 3263,
            "type" : "VEC3"
        },
        {
            "bufferView" : 11,
            "componentType" : 5123,
            "count" : 10728,
            "type" : "SCALAR"
        },
        {
            "bufferView" : 12,
            "componentType" : 5126,
            "count" : 1294,
            "max" : [
                2.943497896194458,
                13.430688858032227,
                -6.247941017150879
            ],
            "min" : [
                -2.969356060028076,
                -2.1398990154266357,
                -15.702852249145508
            ],
            "type" : "VEC3"
        },
        {
            "bufferView" : 13,
            "componentType" : 5126,
            "count" : 1294,
            "type" : "VEC2"
        },
        {
            "bufferView" : 14,
            "componentType" : 5126,
            "count" : 1294,
            "type" : "VEC3"
        },
        {
            "bufferView" : 15,
            "componentType" : 5123,
            "count" : 3732,
            "type" : "SCALAR"
        }
    ],
    "bufferViews" : [
        {
            "buffer" : 0,
            "byteLength" : 18144,
            "byteOffset" : 0,
            "target" : 34962
        },
        {
            "buffer" : 0,
            "byteLength" : 12096,
            "byteOffset" : 18144,
            "target" : 34962
        },
        {
            "buffer" : 0,
            "byteLength" : 18144,
            "byteOffset" : 30240,
            "target" : 34962
        },
        {
            "buffer" : 0,
            "byteLength" : 4752,
            "byteOffset" : 48384,
            "target" : 34963
        },
        {
            "buffer" : 0,
            "byteLength" : 5040,
            "byteOffset" : 53136,
            "target" : 34962
        },
        {
            "buffer" : 0,
            "byteLength" : 3360,
            "byteOffset" : 58176,
            "target" : 34962
        },
        {
            "buffer" : 0,
            "byteLength" : 5040,
            "byteOffset" : 61536,
            "target" : 34962
        },
        {
            "buffer" : 0,
            "byteLength" : 1320,
            "byteOffset" : 66576,
            "target" : 34963
        },
        {
            "buffer" : 0,
            "byteLength" : 39156,
            "byteOffset" : 67896,
            "target" : 34962
        },
        {
            "buffer" : 0,
            "byteLength" : 26104,
            "byteOffset" : 107052,
            "target" : 34962
        },
        {
            "buffer" : 0,
            "byteLength" : 39156,
            "byteOffset" : 133156,
            "target" : 34962
        },
        {
            "buffer" : 0,
            "byteLength" : 21456,
            "byteOffset" : 172312,
            "target" : 34963
        },
        {
            "buffer" : 0,
            "byteLength" : 15528,
            "byteOffset" : 193768,
            "target" : 34962
        },
        {
            "buffer" : 0,
            "byteLength" : 10352,
            "byteOffset" : 209296,
            "target" : 34962
        },
        {
            "buffer" : 0,
            "byteLength" : 15528,
            "byteOffset" : 219648,
            "target" : 34962
        },
        {
            "buffer" : 0,
            "byteLength" : 7464,
            "byteOffset" : 235176,
            "target" : 34963
        }
    ],
    "buffers" : [
        {
            "byteLength" : 242640,
            "uri" : "data:application/octet-stream;base64,"
        }
    ]
}
