{
    "asset" : {
        "generator" : "Khronos glTF Blender I/O v1.4.40",
        "version" : "2.0"
    },
    "scene" : 0,
    "scenes" : [
        {
            "name" : "Scene",
            "nodes" : [
                0
            ]
        }
    ],
    "nodes" : [
        {
            "mesh" : 0,
            "name" : "telescopeViewport",
            "rotation" : [
                0.70710688829422,
                0,
                0,
                0.7071066498756409
            ],
            "scale" : [
                0.5357705950737,
                0.5357705950737,
                1
            ]
        }
    ],
    "materials" : [
        {
            "doubleSided" : true,
            "name" : "initialShadingGroup.063",
            "pbrMetallicRoughness" : {
                "baseColorFactor" : [
                    0.1980690211057663,
                    0.28314852714538574,
                    0.23839761316776276,
                    1
                ],
                "metallicFactor" : 0
            }
        }
    ],
    "meshes" : [
        {
            "name" : "telescopeViewport",
            "primitives" : [
                {
                    "attributes" : {
                        "POSITION" : 0,
                        "NORMAL" : 1,
                        "TEXCOORD_0" : 2
                    },
                    "indices" : 3,
                    "material" : 0
                }
            ]
        }
    ],
    "accessors" : [
        {
            "bufferView" : 0,
            "componentType" : 5126,
            "count" : 2896,
            "max" : [
                10.10004997253418,
                10.100049018859863,
                0.10000000149011612
            ],
            "min" : [
                -10.100046157836914,
                -10.100049018859863,
                -6.099999904632568
            ],
            "type" : "VEC3"
        },
        {
            "bufferView" : 1,
            "componentType" : 5126,
            "count" : 2896,
            "type" : "VEC3"
        },
        {
            "bufferView" : 2,
            "componentType" : 5126,
            "count" : 2896,
            "type" : "VEC2"
        },
        {
            "bufferView" : 3,
            "componentType" : 5123,
            "count" : 6480,
            "type" : "SCALAR"
        }
    ],
    "bufferViews" : [
        {
            "buffer" : 0,
            "byteLength" : 34752,
            "byteOffset" : 0
        },
        {
            "buffer" : 0,
            "byteLength" : 34752,
            "byteOffset" : 34752
        },
        {
            "buffer" : 0,
            "byteLength" : 23168,
            "byteOffset" : 69504
        },
        {
            "buffer" : 0,
            "byteLength" : 12960,
            "byteOffset" : 92672
        }
    ],
    "buffers" : [
        {
            "byteLength" : 105632,
            "uri" : "data:application/octet-stream;base64,"
        }
    ]
}
