# This file uses centimeters as units for non-parametric coordinates.

mtllib departureBay.mtl
g default
v -6.000000 0.000000 12.950519
v 6.000000 0.000000 12.950519
v -6.000000 6.000000 12.950519
v 6.000000 6.000000 12.950519
v -6.000000 6.000000 4.950519
v 6.000000 6.000000 4.950519
v -6.000000 0.000000 4.950519
v 6.000000 0.000000 4.950519
v -6.400000 -0.400000 13.350519
v 6.400000 -0.400000 13.350519
v 6.400000 6.400000 13.350519
v -6.400000 6.400000 13.350519
v 6.400000 6.400000 4.950519
v -6.400000 6.400000 4.950519
v -6.400000 -0.400000 4.950519
v 6.400000 -0.400000 4.950519
vt 0.375000 0.000000
vt 0.625000 0.000000
vt 0.375000 0.250000
vt 0.625000 0.250000
vt 0.375000 0.500000
vt 0.625000 0.500000
vt 0.375000 0.750000
vt 0.625000 0.750000
vt 0.375000 1.000000
vt 0.625000 1.000000
vt 0.875000 0.000000
vt 0.875000 0.250000
vt 0.125000 0.000000
vt 0.125000 0.250000
vt 0.375000 0.000000
vt 0.625000 0.000000
vt 0.625000 0.250000
vt 0.375000 0.250000
vt 0.625000 0.500000
vt 0.375000 0.500000
vt 0.375000 0.750000
vt 0.625000 0.750000
vt 0.625000 1.000000
vt 0.375000 1.000000
vt 0.875000 0.000000
vt 0.875000 0.250000
vt 0.125000 0.000000
vt 0.125000 0.250000
vt 0.625000 0.500000
vt 0.375000 0.500000
vt 0.375000 0.750000
vt 0.625000 0.750000
vt 0.875000 0.000000
vt 0.875000 0.250000
vt 0.125000 0.250000
vt 0.125000 0.000000
vn 0.000000 0.000000 1.000000
vn 0.000000 0.000000 1.000000
vn 0.000000 0.000000 1.000000
vn 0.000000 0.000000 1.000000
vn 0.000000 1.000000 0.000000
vn 0.000000 1.000000 0.000000
vn 0.000000 1.000000 0.000000
vn 0.000000 1.000000 0.000000
vn 0.000000 -1.000000 0.000000
vn 0.000000 -1.000000 0.000000
vn 0.000000 -1.000000 0.000000
vn 0.000000 -1.000000 0.000000
vn 1.000000 0.000000 0.000000
vn 1.000000 0.000000 0.000000
vn 1.000000 0.000000 0.000000
vn 1.000000 0.000000 0.000000
vn -1.000000 0.000000 0.000000
vn -1.000000 0.000000 0.000000
vn -1.000000 0.000000 0.000000
vn -1.000000 0.000000 0.000000
vn 0.000000 0.000000 -1.000000
vn 0.000000 0.000000 -1.000000
vn 0.000000 0.000000 -1.000000
vn 0.000000 0.000000 -1.000000
vn 0.000000 -1.000000 0.000000
vn 0.000000 -1.000000 0.000000
vn 0.000000 -1.000000 0.000000
vn 0.000000 -1.000000 0.000000
vn 0.000000 1.000000 0.000000
vn 0.000000 1.000000 0.000000
vn 0.000000 1.000000 0.000000
vn 0.000000 1.000000 0.000000
vn -1.000000 0.000000 0.000000
vn -1.000000 0.000000 0.000000
vn -1.000000 0.000000 0.000000
vn -1.000000 0.000000 0.000000
vn 1.000000 0.000000 0.000000
vn 1.000000 0.000000 0.000000
vn 1.000000 0.000000 0.000000
vn 1.000000 0.000000 0.000000
vn -0.000000 0.000000 -1.000000
vn 0.000000 0.000000 -1.000000
vn 0.000000 0.000000 -1.000000
vn -0.000000 0.000000 -1.000000
vn 0.000000 0.000000 -1.000000
vn -0.000000 0.000000 -1.000000
vn -0.000000 0.000000 -1.000000
vn 0.000000 0.000000 -1.000000
g departure_bay ship_v4 ship
usemtl lambert5SG
f 9/1/1 10/2/2 11/4/3 12/3/4
f 12/3/5 11/4/6 13/29/7 14/30/8
f 15/31/9 16/32/10 10/10/11 9/9/12
f 10/2/13 16/33/14 13/34/15 11/4/16
f 15/36/17 9/1/18 12/3/19 14/35/20
f 1/15/21 3/18/22 4/17/23 2/16/24
f 3/18/25 5/20/26 6/19/27 4/17/28
f 7/21/29 1/24/30 2/23/31 8/22/32
f 2/16/33 4/17/34 6/26/35 8/25/36
f 7/27/37 5/28/38 3/18/39 1/15/40
f 6/6/41 5/5/42 14/30/43 13/29/44
f 7/7/45 8/8/46 16/32/47 15/31/48
f 8/11/46 6/12/41 13/34/44 16/33/47
f 5/14/42 7/13/45 15/36/48 14/35/43
