# This file uses centimeters as units for non-parametric coordinates.

mtllib diningHall.mtl
g default
v -6.000000 0.000000 5.020877
v -6.000000 6.000000 5.020877
v -6.000000 6.000000 -4.979123
v -6.000000 0.000000 -4.979123
v 0.000000 0.000000 5.020877
v 0.000000 6.000000 5.020877
v 0.000000 6.000000 -4.979123
v 0.000000 0.000000 -4.979123
v -6.400000 6.400000 5.020877
v 0.000000 6.400000 5.020877
v 0.000000 6.400000 -4.979123
v -6.400000 6.400000 -4.979123
v -6.400000 -0.400000 -4.979123
v 0.000000 -0.400000 -4.979123
v 0.000000 -0.400000 5.020877
v -6.400000 -0.400000 5.020877
vt 0.375000 0.000000
vt 0.375000 0.250000
vt 0.375000 0.500000
vt 0.375000 0.750000
vt 0.375000 1.000000
vt 0.125000 0.000000
vt 0.125000 0.250000
vt 0.500000 1.000000
vt 0.500000 0.250000
vt 0.500000 0.500000
vt 0.500000 0.750000
vt 0.375000 0.250000
vt 0.500000 0.250000
vt 0.500000 0.500000
vt 0.375000 0.500000
vt 0.375000 0.750000
vt 0.500000 0.750000
vt 0.500000 1.000000
vt 0.375000 1.000000
vt 0.125000 0.000000
vt 0.375000 0.000000
vt 0.125000 0.250000
vt 0.375000 0.250000
vt 0.500000 0.250000
vt 0.500000 0.500000
vt 0.375000 0.500000
vt 0.375000 0.750000
vt 0.500000 0.750000
vt 0.500000 1.000000
vt 0.375000 1.000000
vt 0.375000 0.000000
vt 0.125000 0.250000
vt 0.125000 0.000000
vn 0.000000 1.000000 0.000000
vn 0.000000 1.000000 0.000000
vn 0.000000 1.000000 0.000000
vn 0.000000 1.000000 0.000000
vn 0.000000 -1.000000 0.000000
vn 0.000000 -1.000000 0.000000
vn 0.000000 -1.000000 0.000000
vn 0.000000 -1.000000 0.000000
vn -1.000000 0.000000 0.000000
vn -1.000000 0.000000 0.000000
vn -1.000000 0.000000 0.000000
vn -1.000000 0.000000 0.000000
vn 0.000000 -1.000000 0.000000
vn 0.000000 -1.000000 0.000000
vn 0.000000 -1.000000 0.000000
vn 0.000000 -1.000000 0.000000
vn 0.000000 1.000000 0.000000
vn 0.000000 1.000000 0.000000
vn 0.000000 1.000000 0.000000
vn 0.000000 1.000000 0.000000
vn 1.000000 0.000000 0.000000
vn 1.000000 0.000000 0.000000
vn 1.000000 0.000000 0.000000
vn 1.000000 0.000000 0.000000
vn 0.000000 0.000000 1.000000
vn 0.000000 0.000000 1.000000
vn 0.000000 0.000000 1.000000
vn 0.000000 0.000000 1.000000
vn 1.000000 0.000000 0.000000
vn 1.000000 0.000000 0.000000
vn 1.000000 0.000000 0.000000
vn 1.000000 0.000000 0.000000
vn 0.000000 0.000000 -1.000000
vn 0.000001 0.000000 -1.000000
vn 0.000000 0.000000 -1.000000
vn 0.000000 0.000000 -1.000000
vn 0.000001 0.000000 -1.000000
vn 0.000000 0.000000 -1.000000
vn 0.000000 0.000000 -1.000000
vn 0.000000 0.000000 -1.000000
vn 1.000000 0.000000 0.000000
vn 1.000000 0.000000 0.000000
vn 1.000000 0.000000 0.000000
vn 1.000000 0.000000 0.000000
vn 0.000000 0.000000 1.000000
vn 0.000000 0.000000 1.000000
vn 0.000000 0.000000 1.000000
vn 0.000000 0.000000 1.000000
s off
usemtl lambert5SG
f 9/23/1 10/24/2 11/25/3 12/26/4
f 13/27/5 14/28/6 15/29/7 16/30/8
f 13/33/9 16/31/10 9/23/11 12/32/12
f 2/12/13 3/15/14 7/14/15 6/13/16
f 4/16/17 1/19/18 5/18/19 8/17/20
f 4/20/21 3/22/22 2/12/23 1/21/24
s 1
f 2/2/25 6/9/26 10/24/27 9/23/28
s off
f 6/9/29 7/10/30 11/25/31 10/24/32
s 2
f 7/10/33 3/3/34 12/26/35 11/25/36
f 4/4/37 8/11/38 14/28/39 13/27/40
s off
f 8/11/41 5/8/42 15/29/43 14/28/44
s 1
f 5/8/45 1/5/46 16/30/47 15/29/48
f 1/1/46 2/2/25 9/23/28 16/31/47
s 2
f 3/7/34 4/6/37 13/33/40 12/32/35
