# This file uses centimeters as units for non-parametric coordinates.

mtllib engine.mtl
g default
v -8.410084 -1.205042 21.624893
v 8.410084 -1.205042 21.624893
v -8.410084 7.205042 21.624893
v 8.410084 7.205042 21.624893
v -6.000000 6.000000 13.624893
v 6.000000 6.000000 13.624893
v -6.000000 0.000000 13.624893
v 6.000000 0.000000 13.624893
v -8.948346 -1.669807 22.024893
v 8.948346 -1.669807 22.024893
v 8.948346 7.669807 22.024893
v -8.948346 7.669807 22.024893
v 6.297254 6.344260 13.224893
v -6.297254 6.344260 13.224893
v 6.297254 -0.344260 13.224893
v -6.297254 -0.344260 13.224893
vt 0.375000 0.000000
vt 0.625000 0.000000
vt 0.375000 0.250000
vt 0.625000 0.250000
vt 0.375000 0.500000
vt 0.625000 0.500000
vt 0.375000 0.750000
vt 0.625000 0.750000
vt 0.375000 1.000000
vt 0.625000 1.000000
vt 0.875000 0.000000
vt 0.875000 0.250000
vt 0.125000 0.000000
vt 0.125000 0.250000
vt 0.375000 0.000000
vt 0.625000 0.000000
vt 0.625000 0.250000
vt 0.375000 0.250000
vt 0.625000 0.500000
vt 0.375000 0.500000
vt 0.625000 0.750000
vt 0.375000 0.750000
vt 0.625000 1.000000
vt 0.375000 1.000000
vt 0.875000 0.000000
vt 0.875000 0.250000
vt 0.125000 0.000000
vt 0.125000 0.250000
vn 0.000000 0.000000 1.000000
vn 0.000000 0.000000 1.000000
vn 0.000000 0.000000 1.000000
vn 0.000000 0.000000 1.000000
vn 0.000000 0.988845 -0.148950
vn 0.000000 0.988845 -0.148950
vn 0.000000 0.988845 -0.148950
vn 0.000000 0.988845 -0.148950
vn 0.000000 0.000000 -1.000000
vn 0.000000 0.000000 -1.000000
vn 0.000000 0.000000 -1.000000
vn 0.000000 0.000000 -1.000000
vn 0.000000 -0.988845 -0.148950
vn 0.000000 -0.988845 -0.148950
vn 0.000000 -0.988845 -0.148950
vn 0.000000 -0.988845 -0.148950
vn 0.957493 0.000000 -0.288455
vn 0.957493 0.000000 -0.288455
vn 0.957493 0.000000 -0.288455
vn 0.957493 0.000000 -0.288455
vn -0.957493 0.000000 -0.288455
vn -0.957493 0.000000 -0.288455
vn -0.957493 0.000000 -0.288455
vn -0.957493 0.000000 -0.288455
vn 0.000000 0.000000 -1.000000
vn 0.000000 0.000000 -1.000000
vn 0.000000 0.000000 -1.000000
vn 0.000000 0.000000 -1.000000
vn 0.000000 -0.988845 0.148950
vn 0.000000 -0.988845 0.148950
vn 0.000000 -0.988845 0.148950
vn 0.000000 -0.988845 0.148950
vn 0.000000 0.000000 1.000000
vn 0.000000 0.000000 1.000000
vn 0.000000 0.000000 1.000000
vn 0.000000 0.000000 1.000000
vn 0.000000 0.988845 0.148950
vn 0.000000 0.988845 0.148950
vn 0.000000 0.988845 0.148950
vn 0.000000 0.988845 0.148950
vn -0.957493 0.000000 0.288455
vn -0.957493 0.000000 0.288455
vn -0.957493 0.000000 0.288455
vn -0.957493 0.000000 0.288455
vn 0.957493 0.000000 0.288455
vn 0.957493 0.000000 0.288455
vn 0.957493 0.000000 0.288455
vn 0.957493 0.000000 0.288455
g engine ship_v4 ship
usemtl lambert5SG
f 9/1/1 10/2/2 11/4/3 12/3/4
f 12/3/5 11/4/6 13/6/7 14/5/8
f 14/5/9 13/6/10 15/8/11 16/7/12
f 16/7/13 15/8/14 10/10/15 9/9/16
f 10/2/17 15/11/18 13/12/19 11/4/20
f 16/13/21 9/1/22 12/3/23 14/14/24
f 1/15/25 3/18/26 4/17/27 2/16/28
f 3/18/29 5/20/30 6/19/31 4/17/32
f 5/20/33 7/22/34 8/21/35 6/19/36
f 7/22/37 1/24/38 2/23/39 8/21/40
f 2/16/41 4/17/42 6/26/43 8/25/44
f 7/27/45 5/28/46 3/18/47 1/15/48
