# This file uses centimeters as units for non-parametric coordinates.

mtllib wingR.mtl
g default
v 7.876162 6.000000 -4.368507
v 12.713999 6.000000 12.952002
v 7.876162 0.000000 -4.368507
v 12.713999 -0.000000 12.952002
v 6.714000 6.000000 12.952002
v 6.714000 0.000000 12.952002
v 6.713999 6.000000 -4.368507
v 6.713999 0.000000 -4.368507
v 8.212836 6.400000 -4.768506
v 13.189238 6.400000 13.352002
v 13.189238 -0.400000 13.352002
v 8.212836 -0.400000 -4.768506
v 6.313999 6.400000 -4.768506
v 6.314000 6.400000 13.352002
v 6.314000 -0.400000 13.352002
v 6.313999 -0.400000 -4.768506
vt 0.421875 0.020934
vt 0.401042 0.234375
vt 0.416667 0.312500
vt 0.416667 0.687500
vt 0.401042 0.765625
vt 0.421875 0.979066
vt 0.500000 0.156250
vt 0.500000 0.843750
vt 0.447917 0.166717
vt 0.447917 0.833283
vt 0.416667 0.312500
vt 0.401042 0.234375
vt 0.401042 0.765625
vt 0.416667 0.687500
vt 0.421875 0.020934
vt 0.447917 0.166717
vt 0.500000 0.156250
vt 0.421875 0.979066
vt 0.500000 0.843750
vt 0.447917 0.833283
vn 0.964297 -0.000000 -0.264823
vn 0.964297 -0.000000 -0.264823
vn 0.964297 -0.000000 -0.264823
vn 0.964297 -0.000000 -0.264823
vn 0.000000 1.000000 0.000000
vn 0.000000 1.000000 0.000000
vn 0.000000 1.000000 0.000000
vn 0.000000 1.000000 0.000000
vn -0.000000 -1.000000 0.000000
vn -0.000000 -1.000000 0.000000
vn -0.000000 -1.000000 0.000000
vn 0.000000 0.000000 1.000000
vn 0.000000 0.000000 1.000000
vn 0.000000 0.000000 1.000000
vn 0.000000 0.000000 1.000000
vn -0.000000 0.000000 -1.000000
vn -0.000000 0.000000 -1.000000
vn -0.000000 0.000000 -1.000000
vn -0.000000 0.000000 -1.000000
vn -0.000000 -1.000000 0.000000
vn -1.000000 0.000000 0.000000
vn -1.000000 0.000000 0.000000
vn -1.000000 0.000000 0.000000
vn -1.000000 0.000000 0.000000
vn -0.963136 0.000000 0.269016
vn -0.963136 0.000000 0.269016
vn -0.963136 0.000000 0.269016
vn -0.963136 0.000000 0.269016
vn -0.000000 -1.000000 0.000000
vn -0.000000 -1.000000 0.000000
vn -0.000000 -1.000000 0.000000
vn -0.000000 -1.000000 0.000000
vn 0.000000 1.000000 0.000000
vn 0.000000 1.000000 0.000000
vn 0.000000 1.000000 0.000000
vn -0.000000 0.000000 -1.000000
vn -0.000000 0.000000 -1.000000
vn -0.000000 0.000000 -1.000000
vn -0.000000 0.000000 -1.000000
vn 0.000000 0.000000 1.000000
vn 0.000000 0.000000 1.000000
vn 0.000000 0.000000 1.000000
vn 0.000000 0.000000 1.000000
vn 0.000000 1.000000 0.000000
vn 1.000000 -0.000000 -0.000000
vn 1.000000 -0.000000 -0.000000
vn 1.000000 -0.000000 -0.000000
vn 1.000000 -0.000000 -0.000000
g wings_R ship_v4 ship
usemtl lambert5SG
f 9/3/1 10/2/2 11/5/3 12/4/4
f 9/1/5 13/9/6 14/7/7
f 10/2/8 9/1/5 14/7/7
f 12/6/9 11/5/10 15/8/11
f 10/2/12 14/7/13 15/8/14 11/5/15
f 16/10/16 13/9/17 9/3/18 12/4/19
f 15/8/11 16/10/20 12/6/9
f 16/10/21 15/8/22 14/7/23 13/9/24
f 1/11/25 3/14/26 4/13/27 2/12/28
f 1/15/29 5/17/30 7/16/31
f 2/12/32 5/17/30 1/15/29
f 3/18/33 6/19/34 4/13/35
f 2/12/36 4/13/37 6/19/38 5/17/39
f 8/20/40 3/14/41 1/11/42 7/16/43
f 6/19/34 3/18/33 8/20/44
f 8/20/45 7/16/46 5/17/47 6/19/48
